# xmcd
#
# Track frame offsets:
#	150
#	15417
#	30901
#	43280
#	60079
#	77655
#	89264
#	106368
#	122910
#	137475
#	152685
#
# Disc length: 2181 seconds
#
# Revision: 0
# Processed by: cddbd v1.5.1PL2 Copyright (c) Steve Scherf et al.
# Submitted via: EasyCDDAExtractor 4.6.9.1
#
DISCID=7908830b
DTITLE=Merle Haggard - Chill Factor
DYEAR=1987
DGENRE=Country
TTITLE0=Chill Factor
TTITLE1=Twinkle, Twinkle Lucky Star
TTITLE2=Man From Another Time
TTITLE3=We Never Touch At All
TTITLE4=You Babe
TTITLE5=Thanking The Good Lord
TTITLE6=After Dark
TTITLE7=1929
TTITLE8=Thirty Again
TTITLE9=I Don't Have Any Love Around
TTITLE10=More Than This Old Heart Can Take
EXTD=YEAR: 1987
EXTT0=
EXTT1=
EXTT2=
EXTT3=
EXTT4=
EXTT5=
EXTT6=
EXTT7=
EXTT8=
EXTT9=
EXTT10=
PLAYORDER=
